HIERARCHY
ROOT joint_Root
{
	OFFSET 0.0 0.0 0.0
	CHANNELS 6 Xposition Yposition Zposition Zrotation Xrotation Yrotation 
	JOINT Hips
	{
		OFFSET 4.5925 91.4895 -427.239
		CHANNELS 6 Xposition Yposition Zposition Zrotation Xrotation Yrotation 
		JOINT Spine
		{
			OFFSET 15.7357 0.0 0.0
			CHANNELS 6 Xposition Yposition Zposition Zrotation Xrotation Yrotation 
			JOINT Chest
			{
				OFFSET 8.98455 -0.406207 0.0
				CHANNELS 6 Xposition Yposition Zposition Zrotation Xrotation Yrotation 
				JOINT Neck
				{
					OFFSET 16.3773 0.0 0.0
					CHANNELS 6 Xposition Yposition Zposition Zrotation Xrotation Yrotation 
					JOINT Head
					{
						OFFSET 6.45672 0.0 0.0
						CHANNELS 6 Xposition Yposition Zposition Zrotation Xrotation Yrotation 
						End Site
						{
							OFFSET 0.0 0.0 0.0
						}
					}
				}
				JOINT Shoulder_L
				{
					OFFSET 12.9942 -0.242716 4.98039
					CHANNELS 6 Xposition Yposition Zposition Zrotation Xrotation Yrotation 
					JOINT UpperArm_L
					{
						OFFSET 5.34809 0.0 0.0
						CHANNELS 6 Xposition Yposition Zposition Zrotation Xrotation Yrotation 
						JOINT LowerArm_L
						{
							OFFSET 24.3286 1.87007e-05 0.0
							CHANNELS 6 Xposition Yposition Zposition Zrotation Xrotation Yrotation 
							JOINT Hand_L
							{
								OFFSET 22.2916 0.0 0.0
								CHANNELS 6 Xposition Yposition Zposition Zrotation Xrotation Yrotation 
								End Site
								{
									OFFSET 0.0 0.0 0.0
								}
							}
						}
					}
				}
				JOINT Shoulder_R
				{
					OFFSET 12.9945 -0.242716 -4.98039
					CHANNELS 6 Xposition Yposition Zposition Zrotation Xrotation Yrotation 
					JOINT UpperArm_R
					{
						OFFSET -5.34813 0.0 0.0
						CHANNELS 6 Xposition Yposition Zposition Zrotation Xrotation Yrotation 
						JOINT LowerArm_R
						{
							OFFSET -24.3289 0.000322201 0.0
							CHANNELS 6 Xposition Yposition Zposition Zrotation Xrotation Yrotation 
							JOINT Hand_R
							{
								OFFSET -22.2915 -0.000108084 0.0
								CHANNELS 6 Xposition Yposition Zposition Zrotation Xrotation Yrotation 
								End Site
								{
									OFFSET 0.0 0.0 0.0
								}
							}
						}
					}
				}
			}
		}
		JOINT UpperLeg_L
		{
			OFFSET -2.19248 -6.46944 0.0
			CHANNELS 6 Xposition Yposition Zposition Zrotation Xrotation Yrotation 
			JOINT LowerLeg_L
			{
				OFFSET 39.0811 0.0 -1.23785e-05
				CHANNELS 6 Xposition Yposition Zposition Zrotation Xrotation Yrotation 
				JOINT Foot_L
				{
					OFFSET 40.9854 0.0 -1.26872e-05
					CHANNELS 6 Xposition Yposition Zposition Zrotation Xrotation Yrotation 
					JOINT Toes_L
					{
						OFFSET 11.7543 0.0 0.0
						CHANNELS 6 Xposition Yposition Zposition Zrotation Xrotation Yrotation 
						End Site
						{
							OFFSET 0.0 0.0 0.0
						}
					}
				}
			}
		}
		JOINT UpperLeg_R
		{
			OFFSET -2.19251 6.46944 0.0
			CHANNELS 6 Xposition Yposition Zposition Zrotation Xrotation Yrotation 
			JOINT LowerLeg_R
			{
				OFFSET -39.0811 -0.00228153 -0.0401928
				CHANNELS 6 Xposition Yposition Zposition Zrotation Xrotation Yrotation 
				JOINT Foot_R
				{
					OFFSET -40.9854 0.0 0.0
					CHANNELS 6 Xposition Yposition Zposition Zrotation Xrotation Yrotation 
					JOINT Toes_R
					{
						OFFSET -11.7543 0.0 0.0
						CHANNELS 6 Xposition Yposition Zposition Zrotation Xrotation Yrotation 
						End Site
						{
							OFFSET 0.0 0.0 0.0
						}
					}
				}
			}
		}
	}
}
MOTION
Frames:	5
Frame Time:	0.0333333
0.000000 0.000000 0.000000 0.000000 0.000000 -0.000000 3.996380 91.617000 -0.946321 89.207800 -10.927700 4.246760 15.735700 0.000005 -0.000001 89.387300 84.675600 -86.439700 8.984550 -0.406207 -0.000000 2.895150 -0.238852 5.895080 16.377300 -0.000001 -0.000001 4.907880 1.229360 -3.786900 6.456720 -0.000001 -0.000000 -1.660100 -0.477667 -1.828830 12.994200 -0.242716 4.980390 -84.818800 -9.766640 -61.873700 5.348090 -0.000007 -0.000001 -37.456200 -61.144900 -83.677800 24.328600 0.000019 0.000005 13.050600 9.795660 -53.722600 22.291600 -0.000001 0.000005 29.148500 5.304900 -0.065730 12.994500 -0.242716 -4.980390 87.961400 9.744190 -78.122900 -5.348130 -0.000001 -0.000004 -59.574100 16.492900 -6.751570 -24.328900 0.000322 -0.000009 -0.391683 -0.844603 -24.820700 -22.291500 -0.000108 -0.000004 16.490000 5.419470 -3.581360 -2.192480 -6.469440 -0.000000 -178.672000 -20.228800 -4.237330 39.081100 -0.000007 -0.000012 -0.073790 0.147372 26.597500 40.985400 -0.000006 -0.000013 3.634810 5.026630 -68.595500 11.754300 -0.000000 0.000003 -0.000036 -0.000420 -16.593900 -2.192510 6.469440 -0.000001 174.175000 18.348000 174.060000 -39.081100 -0.002282 -0.040193 -0.095020 0.203591 25.779600 -40.985400 0.000008 0.000006 1.816460 19.551700 -65.433300 -11.754300 -0.000006 -0.000006 -0.002254 -0.031858 -17.868500
0.000000 0.000000 0.000000 0.000000 0.000000 -0.000000 3.781200 91.631000 -0.987983 89.294000 -10.183700 4.275730 15.735700 0.000005 -0.000001 89.158700 84.672500 -86.371800 8.984550 -0.406207 -0.000000 2.900680 -0.274459 5.574820 16.377300 -0.000001 -0.000001 4.940570 1.086940 -3.729340 6.456720 -0.000001 -0.000000 -1.686060 -0.495247 -1.791440 12.994200 -0.242716 4.980390 -85.127900 -9.247900 -62.058100 5.348090 -0.000007 -0.000001 -36.063000 -59.649600 -79.554400 24.328600 0.000019 0.000005 12.947800 8.192080 -58.211000 22.291600 -0.000001 0.000005 27.676300 5.317130 -0.414165 12.994500 -0.242716 -4.980390 87.940100 9.638660 -77.876400 -5.348130 -0.000001 -0.000004 -60.130500 16.943700 -6.989910 -24.328900 0.000322 -0.000009 -0.295088 -0.658850 -24.050100 -22.291500 -0.000108 -0.000004 16.482000 5.416970 -3.497290 -2.192480 -6.469440 -0.000000 -178.612000 -19.886700 -4.264780 39.081100 -0.000007 -0.000012 -0.073506 0.147086 26.553600 40.985400 -0.000006 -0.000013 3.591880 5.448230 -68.486100 11.754300 -0.000000 0.000003 -0.000030 -0.000361 -16.591700 -2.192510 6.469440 -0.000001 174.188000 18.666400 174.187000 -39.081100 -0.002282 -0.040193 -0.100433 0.214467 25.814300 -40.985400 0.000008 0.000006 1.849960 19.093300 -65.541800 -11.754300 -0.000006 -0.000006 -0.002206 -0.031266 -17.844500
0.000000 0.000000 0.000000 0.000000 0.000000 -0.000000 3.525290 91.634600 -1.033420 89.399800 -9.383880 4.355500 15.735700 0.000005 -0.000001 88.939800 84.654400 -86.337800 8.984550 -0.406207 -0.000000 2.935700 -0.307158 5.206520 16.377300 -0.000001 -0.000001 4.915310 0.875434 -3.530920 6.456720 -0.000001 -0.000000 -1.686370 -0.465344 -1.809310 12.994200 -0.242716 4.980390 -85.560300 -8.547780 -62.418700 5.348090 -0.000007 -0.000001 -33.619800 -57.323200 -73.555300 24.328600 0.000019 0.000005 12.771600 6.332870 -64.051900 22.291600 -0.000001 0.000005 26.212500 5.335100 -0.935571 12.994500 -0.242716 -4.980390 87.933100 9.471570 -77.630100 -5.348130 -0.000001 -0.000004 -60.739400 17.975500 -7.191380 -24.328900 0.000322 -0.000009 -0.290533 -0.671646 -23.315900 -22.291500 -0.000108 -0.000004 16.491600 5.412910 -3.361720 -2.192480 -6.469440 -0.000000 -178.539000 -19.477700 -4.278560 39.081100 -0.000007 -0.000012 -0.070932 0.141859 26.565800 40.985400 -0.000006 -0.000013 3.518910 5.847090 -68.390100 11.754300 -0.000000 0.000003 -0.000028 -0.000336 -16.590700 -2.192510 6.469440 -0.000001 174.169000 18.998100 174.347000 -39.081100 -0.002282 -0.040193 -0.108876 0.231241 25.880400 -40.985400 0.000008 0.000006 1.674930 18.677000 -65.591700 -11.754300 -0.000006 -0.000006 -0.002203 -0.031234 -17.843200
0.000000 0.000000 0.000000 0.000000 0.000000 -0.000000 3.218530 91.635500 -1.037190 89.517000 -8.456020 4.522230 15.735700 0.000005 -0.000001 88.661300 84.609200 -86.265500 8.984550 -0.406207 -0.000000 3.024470 -0.350647 4.795970 16.377300 -0.000001 -0.000001 4.887500 0.460879 -3.183120 6.456720 -0.000001 -0.000000 -1.687100 -0.563283 -1.857030 12.994200 -0.242716 4.980390 -86.058400 -7.788630 -63.049300 5.348090 -0.000007 -0.000001 -31.331400 -53.942700 -66.642700 24.328600 0.000019 0.000005 12.637300 4.422200 -71.023100 22.291600 -0.000001 0.000005 24.808700 5.357610 -1.607130 12.994500 -0.242716 -4.980390 87.924400 9.296830 -77.355500 -5.348130 -0.000001 -0.000004 -61.355300 19.383500 -7.297500 -24.328900 0.000322 -0.000009 -0.224151 -0.533056 -22.709300 -22.291500 -0.000108 -0.000004 16.313000 5.409030 -3.233260 -2.192480 -6.469440 -0.000000 -178.463000 -18.663200 -4.186730 39.081100 -0.000007 -0.000012 -0.067626 0.135219 26.570900 40.985400 -0.000006 -0.000013 3.351290 6.022810 -68.293500 11.754300 -0.000000 0.000003 -0.000025 -0.000308 -16.589600 -2.192510 6.469440 -0.000001 174.114000 19.409100 174.655000 -39.081100 -0.002282 -0.040193 -0.117881 0.248529 25.995500 -40.985400 0.000008 0.000006 1.718630 18.203600 -65.809500 -11.754300 -0.000006 -0.000006 -0.002542 -0.035310 -18.009000
0.000000 0.000000 0.000000 0.000000 0.000000 -0.000000 2.891990 91.641900 -1.068210 89.612400 -7.504470 4.619550 15.735700 0.000005 -0.000001 88.542400 84.572400 -86.347200 8.984550 -0.406207 -0.000000 3.096550 -0.365197 4.395630 16.377300 -0.000001 -0.000001 4.684170 0.046679 -2.856290 6.456720 -0.000001 -0.000000 -1.563840 -0.752041 -1.755430 12.994200 -0.242716 4.980390 -86.672100 -6.787990 -63.804300 5.348090 -0.000007 -0.000001 -29.260500 -49.196100 -59.238800 24.328600 0.000019 0.000005 11.261500 2.347870 -78.375900 22.291600 -0.000001 0.000005 23.529200 5.366420 -1.876910 12.994500 -0.242716 -4.980390 87.903000 9.238960 -77.152600 -5.348130 -0.000001 -0.000004 -61.735700 21.095800 -7.330380 -24.328900 0.000322 -0.000009 -0.153538 -0.371936 -22.291800 -22.291500 -0.000108 -0.000004 16.008000 5.406350 -3.144870 -2.192480 -6.469440 -0.000000 -178.362000 -17.984200 -4.163740 39.081100 -0.000007 -0.000012 -0.064794 0.129622 26.559000 40.985400 -0.000006 -0.000013 3.198690 6.308450 -68.180800 11.754300 -0.000000 0.000003 -0.000020 -0.000255 -16.587500 -2.192510 6.469440 -0.000001 174.132000 19.840700 174.895000 -39.081100 -0.002282 -0.040193 -0.125737 0.264018 26.048600 -40.985400 0.000008 0.000006 1.627540 17.678000 -65.925100 -11.754300 -0.000006 -0.000006 -0.002202 -0.031212 -17.842300
